<svg width="108" height="108" viewBox="0 0 108 108" fill="none" xmlns="http://www.w3.org/2000/svg">
<path d="M54 0C24.2245 0 0 24.2245 0 54C0 83.7755 24.2245 108 54 108C83.7755 108 108 83.7755 108 54C108 24.2245 83.7755 0 54 0ZM54 99.6922C28.8052 99.6922 8.30777 79.1946 8.30777 54C8.30777 28.8054 28.8052 8.30777 54 8.30777C79.1948 8.30777 99.6922 28.8052 99.6922 54C99.6922 79.1948 79.1948 99.6922 54 99.6922Z" fill="white"/>
<path d="M44.0411 66.728C41.594 64.2809 40.0029 61.298 39.2623 58.1538H67.8471V49.846H39.2623C40.0032 46.7018 41.594 43.7191 44.0411 41.2718C51.0594 34.2535 62.4787 34.2535 69.4971 41.2718L75.3715 35.3974C65.114 25.14 48.4244 25.14 38.1669 35.3974C34.0963 39.4681 31.6471 44.553 30.8073 49.8458H26.3076V58.1536H30.8073C31.6469 63.4464 34.0961 68.5313 38.1669 72.602C46.8903 81.3253 63.4178 84.5556 75.3715 72.602L69.4971 66.7276C61.6508 74.5742 50.0872 72.7741 44.0411 66.728Z" fill="white"/>
</svg>
