<svg width="106" height="88" viewBox="0 0 106 88" fill="none" xmlns="http://www.w3.org/2000/svg">
<g clip-path="url(#clip0)">
<path fill-rule="evenodd" clip-rule="evenodd" d="M86.5236 17.434H92.2054V57.7147L86.5236 17.434ZM48.6438 71.358V17.434H52.9303L48.6438 71.358Z" stroke="#18A0FB"/>
<path fill-rule="evenodd" clip-rule="evenodd" d="M66.7944 21.585H68.2465V41.5095H66.7944V21.585ZM72.6027 39.8491H92.9314V41.5095H72.6027V39.8491ZM72.6027 46.4906H92.9314V48.151H72.6027V46.4906ZM47.9177 46.4906H68.2465V48.151H47.9177V46.4906Z" fill="#18A0FB"/>
<path fill-rule="evenodd" clip-rule="evenodd" d="M47.9177 39.8491H68.2465V41.5095H47.9177V39.8491ZM72.6027 19.9246H74.0547V41.5095H72.6027V19.9246ZM66.7944 46.4906H68.2465V89.6604H66.7944V46.4906ZM72.6027 46.4906H74.0547V89.6604H72.6027V46.4906Z" fill="#18A0FB"/>
<path fill-rule="evenodd" clip-rule="evenodd" d="M72.6029 14.7391C74.0302 14.676 73.9997 14.6379 75.4257 14.7391C76.8487 14.8404 77.6981 15.2157 79.0238 14.6578C80.3496 14.1016 81.4996 12.9393 81.7566 11.4649C82.0151 9.99046 82.0427 8.74186 80.6385 8.46623C79.368 8.21718 78.1265 9.20842 77.0984 10.0303C75.2645 11.4964 73.8603 12.2834 72.6029 11.4649C75.0772 7.74563 76.368 5.95076 79.7905 3.17959C81.1003 2.11695 82.85 1.18714 84.35 1.92435C85.7004 2.5885 86.5745 4.24887 86.804 5.79469C87.2004 8.45959 87.273 11.2673 86.7575 13.9089C85.9763 17.9171 83.4671 18.2359 82.3781 18.2591C78.4575 18.3388 76.0036 17.7444 72.6029 14.7391V14.7391ZM68.2467 16.3314C67.5613 16.2152 66.1993 16.8794 65.3426 16.9458C64.4859 17.0089 62.8683 16.6237 61.7183 16.3314C59.9032 15.8682 59.7478 14.7873 59.151 12.9891C58.8897 12.2004 58.8475 10.7476 59.4792 10.2578C60.5973 9.39106 65.2119 12.9243 66.7946 14.9434C67.0633 15.2871 67.8561 16.7864 68.2467 16.9441C68.6373 17.1035 68.1451 12.8895 68.2467 12.4528C65.4718 8.41144 64.0009 6.43725 59.8538 4.13099C58.6109 3.44193 57.0717 2.9488 55.8563 3.69099C54.7092 4.39001 54.2823 5.92253 54.063 7.32057C53.5652 10.5095 53.6195 13.7791 54.2227 16.9441C54.5756 18.7971 55.3365 20.8626 57.0107 21.4354C58.1869 21.8373 59.456 21.3607 60.5857 20.8261C63.2879 19.5476 65.9321 18.3023 68.2467 16.3314V16.3314Z" stroke="#18A0FB"/>
<path fill-rule="evenodd" clip-rule="evenodd" d="M69.3241 19.2736C69.6146 18.3222 69.8527 17.2811 69.5768 16.3231C69.3009 15.3684 68.3048 14.6279 67.5163 15.0795C64.2412 20.672 60.0517 25.4879 55.1782 29.2624C57.0905 28.8442 58.9398 28.1115 60.6684 27.0873C60.2526 29.3231 59.3887 31.4181 58.1448 33.2075C63.3722 30.6671 67.4583 25.3971 69.3241 19.2736ZM71.1508 16.6037C72.1208 19.9128 73.9809 21.6928 75.6537 24.6399C77.3279 27.5854 79.6468 30.1806 82.5451 31.5471L80.8709 27.2069C82.2678 28.2197 84.0451 28.5667 85.6714 28.145C81.0885 24.293 77.0703 19.6322 73.7674 14.3373C73.3681 13.698 73.1692 14.4784 72.6029 14.9433C72.1716 15.297 70.9853 16.0392 71.1508 16.6037Z" stroke="#18A0FB"/>
<path fill-rule="evenodd" clip-rule="evenodd" d="M71.6648 15.3618C70.5438 15.7951 69.6769 15.8981 68.9436 15.6191C68.1334 15.3103 67.5032 14.3788 67.5206 13.4407C67.5322 12.8264 67.811 12.1921 68.2466 11.7521C68.646 11.3487 69.1731 11.0797 69.8366 10.9153C70.9242 10.648 71.8942 10.8107 72.5593 11.4317C73.2737 12.1008 73.5539 13.4822 73.1226 14.2875C72.8743 14.7524 72.4286 15.0662 71.6648 15.3618V15.3618Z" stroke="#18A0FB"/>
<path fill-rule="evenodd" clip-rule="evenodd" d="M30.1549 60.6038H48.6439V88.8285L30.1549 60.6038ZM0.726074 87.9601V60.6038H13.3183L0.726074 87.9601Z" stroke="#18A0FB"/>
<path fill-rule="evenodd" clip-rule="evenodd" d="M17.4246 63.0944H18.8766V89.6604H17.4246V63.0944Z" fill="#18A0FB"/>
<path fill-rule="evenodd" clip-rule="evenodd" d="M0 73.0566H49.3699V74.717H0V73.0566Z" fill="#18A0FB"/>
<path d="M16.5027 57.6865C13.7801 52.7867 8.02997 47.4021 5.56438 49.4128C4.53342 50.2546 1.21983 58.3954 5.77638 59.4548M14.5207 63.0943L11.6165 69.7358L14.5207 63.0943ZM27.5892 78.0377L20.3289 61.4339L27.5892 78.0377ZM19.8134 58.3755C22.7117 53.6601 26.487 50.0172 28.3631 52.0462C29.5305 53.3081 33.6253 66.9746 25.9004 65.369C25.9004 65.369 21.3613 64.4675 18.9262 63.712L19.8134 58.3755Z" stroke="#18A0FB"/>
<path fill-rule="evenodd" clip-rule="evenodd" d="M16.2471 62.7523C17.0733 63.0512 17.9648 63.2421 18.7925 62.9466C19.6202 62.651 20.3491 61.7511 20.3288 60.7084C20.3143 60.0343 19.9919 59.405 19.5519 58.9882C19.112 58.5731 18.5675 58.3473 18.0186 58.2195C17.1081 58.0086 16.099 58.0767 15.3497 58.7342C14.6004 59.3917 14.2461 60.7599 14.7703 61.6814C15.1028 62.2625 15.6851 62.5498 16.2471 62.7523V62.7523Z" stroke="#18A0FB"/>
<path d="M83.1303 64.9125C81.6782 64.9125 78.7741 57.3345 86.0344 60.5822C93.2946 63.8299 93.2946 65.995 93.2946 65.995M82.0412 88.8302V67.2453H102.37V88.8302H82.0412ZM87.1234 66.4151L103.096 83.0189L87.1234 66.4151ZM82.7672 71.3962L100.918 90.4906L82.7672 71.3962Z" stroke="#18A0FB"/>
<path d="M86.8053 57.6998C85.8978 57.6998 84.0827 50.9636 88.6204 53.851C93.1595 56.7384 92.933 66.4151 92.933 66.4151" stroke="#18A0FB"/>
<path d="M103.096 64.9124C104.548 64.9124 107.452 57.3345 100.192 60.5822C92.9317 63.8299 92.9317 65.995 92.9317 65.995M97.6073 59.8798C98.5163 59.8798 100.331 54.8273 95.7923 56.9908C91.2561 59.1592 91.4826 66.4151 91.4826 66.4151L97.6073 59.8798Z" stroke="#18A0FB"/>
</g>
<defs>
<clipPath id="clip0">
<rect width="106" height="88" fill="white"/>
</clipPath>
</defs>
</svg>
